<?xml version="1.0" encoding="UTF-8"?>
<svg id="Layer_1" data-name="Layer 1" xmlns="http://www.w3.org/2000/svg" viewBox="0 0 947.9 283.52">
  <defs>
    <style>
      .cls-1 {
        fill: #f1f2f2;
      }

      .cls-2 {
        fill: #ed6e32;
      }

      .cls-3 {
        fill: #f78e1e;
      }

      .cls-4 {
        fill: #fecc8b;
      }

      .cls-5 {
        fill: #db1f2a;
      }

      .cls-6 {
        fill: #fac02c;
      }

      .cls-7 {
        fill: #f5b03f;
      }

      .cls-8 {
        fill: #cb6e28;
      }
    </style>
  </defs>
  <g>
    <path class="cls-1" d="M310.73,102.88v-38.79c0-5.01-.34-8.2-1.03-9.55-.69-1.35-2.56-2.45-5.6-3.28-4.42-1.28-6.64-3.49-6.64-6.64,0-2.21.93-3.91,2.8-5.09,1.87-1.18,4.57-1.77,8.11-1.77,1.18,0,4.1.07,8.78.22h4.42c8.16-.05,12.94-.11,14.34-.18,1.4-.07,6.4-.5,15.01-1.29,2.85-.29,5.46-.44,7.82-.44,8.06,0,15.24,1.65,21.53,4.94,10.96,5.7,16.45,14.75,16.45,27.14,0,10.03-3.83,18.07-11.5,24.11-7.23,5.65-15.98,8.48-26.25,8.48-2.61,0-5.8-.17-9.59-.52-2.02-.15-3.27-.22-3.76-.22-1.43,0-2.14.81-2.14,2.43v.44l.52,12.09c.1,2.36.53,4.12,1.29,5.27.76,1.16,2.32,2.35,4.68,3.58,3.2,1.72,4.79,3.59,4.79,5.61,0,3.1-2.36,5.48-7.08,7.15s-11.41,2.51-20.06,2.51c-18.19,0-27.29-3.12-27.29-9.37,0-1.48.39-2.61,1.18-3.39.79-.79,2.63-1.92,5.53-3.39,1.77-.93,2.8-2.24,3.1-3.91.3-1.67.49-7.05.59-16.15ZM343.99,54.72v25.07c0,1.92.42,3.07,1.25,3.47,1.43.69,3.22,1.03,5.38,1.03,3.25,0,5.97-.91,8.19-2.73,3.2-2.6,4.79-6.98,4.79-13.13s-1.87-11.01-5.6-13.86c-2.36-1.82-5.21-2.73-8.55-2.73-3.64,0-5.46.96-5.46,2.88Z"/>
    <path class="cls-1" d="M442.59,69.25v42.85c0,3.39.31,5.88.92,7.45.61,1.57,1.86,3.02,3.72,4.35,1.52,1.08,2.54,2,3.06,2.77.52.76.77,1.73.77,2.91,0,6.34-8.04,9.51-24.12,9.51-8.65,0-15.51-.69-20.58-2.06-1.72-.49-3.11-1.35-4.17-2.58-1.06-1.23-1.59-2.63-1.59-4.2,0-1.33.27-2.36.81-3.1.54-.74,1.92-1.92,4.13-3.54,1.52-1.13,2.61-2.97,3.24-5.53.64-2.56.96-6.37.96-11.43,0-1.62-.11-4.66-.33-9.11-.22-4.45-.38-7.04-.48-7.78-.29-2.02-1.67-3.56-4.13-4.65-3.05-1.33-4.57-3.29-4.57-5.9,0-3.1,1.99-5.41,5.97-6.93,5.51-2.11,11.41-3.91,17.7-5.38,6.29-1.48,11.16-2.21,14.6-2.21,2.7,0,4.06,1.52,4.06,4.57ZM427.99,36.95c4.28,0,7.67.8,10.18,2.4,2.51,1.6,3.76,3.75,3.76,6.45,0,3.79-1.89,6.78-5.68,9-6,3.49-13.25,5.24-21.76,5.24-3.59,0-6.44-.69-8.55-2.06-2.85-1.77-4.28-4.23-4.28-7.37,0-4.23,3.02-7.55,9.07-9.96,6.15-2.46,11.9-3.69,17.26-3.69Z"/>
    <path class="cls-1" d="M493.11,66h19.54c4.52,0,7.41.09,8.67.26,1.25.17,2.2.6,2.84,1.29.83.84,1.25,1.94,1.25,3.32,0,1.82-.81,4.15-2.43,7.01l-19.54,34.73c-1.62,2.9-2.43,4.94-2.43,6.12,0,2.31,1.75,3.47,5.24,3.47,2.51,0,4.51-.5,6.01-1.51,1.5-1.01,2.91-2.77,4.24-5.27,1.13-2.26,2.06-3.77,2.8-4.54.74-.76,1.62-1.14,2.66-1.14,2.16,0,3.93.86,5.31,2.58,1.38,1.72,2.07,3.93,2.07,6.64,0,3.05-.84,6.31-2.51,9.77-1.67,3.47-3.79,6.36-6.34,8.67-1.92,1.72-3.74,2.58-5.46,2.58-.74,0-1.7-.25-2.88-.74-2.41-1.03-5.26-1.57-8.55-1.62h-38.64c-6.54,0-9.81-1.89-9.81-5.68,0-.83.25-1.72.74-2.65.49-.93,2.21-3.86,5.16-8.78l16.89-27.14c3.15-5.01,4.72-8.19,4.72-9.51,0-1.97-2.07-2.95-6.19-2.95-2.12,0-3.8.41-5.05,1.22-1.25.81-2.59,2.32-4.02,4.54-1.62,2.66-2.86,4.36-3.72,5.13-.86.76-2,1.14-3.43,1.14-1.92,0-3.49-.75-4.72-2.25-1.23-1.5-1.84-3.4-1.84-5.72,0-4.42,1.5-9.19,4.5-14.31,2.85-4.87,5.58-7.3,8.19-7.3.59,0,1.38.17,2.36.52,2.7.93,4.85,1.48,6.45,1.62,1.6.15,7.58.32,17.96.52Z"/>
    <path class="cls-1" d="M570.76,66h19.54c4.52,0,7.41.09,8.67.26,1.25.17,2.2.6,2.84,1.29.83.84,1.25,1.94,1.25,3.32,0,1.82-.81,4.15-2.43,7.01l-19.54,34.73c-1.62,2.9-2.43,4.94-2.43,6.12,0,2.31,1.75,3.47,5.24,3.47,2.51,0,4.51-.5,6.01-1.51,1.5-1.01,2.91-2.77,4.24-5.27,1.13-2.26,2.06-3.77,2.8-4.54.74-.76,1.62-1.14,2.65-1.14,2.16,0,3.93.86,5.31,2.58,1.38,1.72,2.07,3.93,2.07,6.64,0,3.05-.84,6.31-2.51,9.77-1.67,3.47-3.79,6.36-6.34,8.67-1.92,1.72-3.74,2.58-5.46,2.58-.74,0-1.7-.25-2.88-.74-2.41-1.03-5.26-1.57-8.55-1.62h-38.64c-6.54,0-9.81-1.89-9.81-5.68,0-.83.25-1.72.74-2.65.49-.93,2.21-3.86,5.16-8.78l16.89-27.14c3.15-5.01,4.72-8.19,4.72-9.51,0-1.97-2.07-2.95-6.19-2.95-2.12,0-3.8.41-5.05,1.22-1.25.81-2.59,2.32-4.02,4.54-1.62,2.66-2.86,4.36-3.72,5.13-.86.76-2,1.14-3.43,1.14-1.92,0-3.49-.75-4.72-2.25-1.23-1.5-1.84-3.4-1.84-5.72,0-4.42,1.5-9.19,4.5-14.31,2.85-4.87,5.58-7.3,8.19-7.3.59,0,1.38.17,2.36.52,2.7.93,4.85,1.48,6.45,1.62,1.6.15,7.58.32,17.96.52Z"/>
    <path class="cls-1" d="M652.84,64.08c8.55,0,15.81,2.16,21.76,6.49,3.15,2.31,5.35,4.95,6.6,7.93,1.25,2.98,1.88,7.07,1.88,12.28l-.15,10.99c0,7.62.54,12.56,1.62,14.82.54,1.08,1.06,1.77,1.55,2.06.49.29,1.52.57,3.1.81,1.57.25,2.36,1.28,2.36,3.1,0,2.36-.95,4.82-2.84,7.37-1.89,2.56-4.34,4.7-7.34,6.42-3.69,2.16-7.55,3.25-11.58,3.25-5.16,0-9.24-1.77-12.24-5.31-1.03-1.28-1.99-1.92-2.88-1.92-.98,0-2.29.62-3.91,1.84-4.92,3.59-10.5,5.38-16.74,5.38s-11.65-1.38-15.63-4.13c-2.61-1.82-4.67-4.19-6.19-7.12-1.52-2.92-2.29-5.99-2.29-9.18,0-5.11,2.06-9.64,6.19-13.57,6.44-6.19,16.08-9.32,28.91-9.37,2.85,0,4.65-.28,5.38-.85.74-.56,1.11-1.88,1.11-3.95,0-5.21-.54-8.98-1.62-11.32-1.08-2.33-2.85-3.5-5.31-3.5-1.48,0-2.79.44-3.95,1.33-1.16.88-2.59,2.51-4.31,4.87-4.38,6.24-8.95,9.37-13.72,9.37-2.41,0-4.38-.71-5.9-2.14-1.52-1.43-2.29-3.29-2.29-5.6s.95-4.72,2.84-7.08c1.89-2.36,4.46-4.42,7.71-6.19,8.9-4.72,18.19-7.08,27.88-7.08ZM647.9,106.78c-2.16,0-4.04.88-5.64,2.66-1.6,1.77-2.4,3.88-2.4,6.34s.56,4.27,1.7,5.72,2.63,2.17,4.5,2.17c3.93,0,5.9-3.32,5.9-9.96,0-2.7-.28-4.52-.85-5.46-.57-.93-1.64-1.43-3.21-1.48Z"/>
    <path class="cls-1" d="M371.43,215.08l-8.85,19.84c-1.52,3.34-2.75,5.59-3.69,6.75-.93,1.16-1.97,1.73-3.1,1.73s-2.04-.47-2.88-1.4c-.54-.59-1.78-2.75-3.72-6.49-1.94-3.74-3.55-7.05-4.83-9.96l-9.73-21.9c-1.33-3.05-2.73-4.57-4.2-4.57-1.57,0-2.43,1.3-2.58,3.91-.34,5.8-.52,11.16-.52,16.08s.25,8.58.74,10.4c.34,1.08.8,1.87,1.36,2.36.56.49,2.1,1.38,4.61,2.66,1.62.84,2.43,2.29,2.43,4.35,0,5.51-7.06,8.26-21.17,8.26-11.9,0-17.85-2.68-17.85-8.04,0-1.38.31-2.37.92-2.99s2.2-1.54,4.76-2.77c1.62-.74,2.72-1.75,3.28-3.02.56-1.28,1.04-3.76,1.44-7.45.44-3.93.86-10.38,1.25-19.36.39-8.97.59-16.65.59-23.04,0-8.01-.62-13.45-1.84-16.3-.44-.98-.95-1.72-1.51-2.21-.57-.49-1.63-1.13-3.21-1.92-3.49-1.67-5.24-3.83-5.24-6.49,0-1.72.65-3.29,1.95-4.72,1.3-1.42,3.04-2.43,5.2-3.02,2.16-.64,5.05-1.19,8.67-1.66,3.61-.47,6.67-.7,9.18-.7,6.29,0,10.74.52,13.35,1.55,1.28.49,2.29,1.16,3.02,1.99.74.84,1.79,2.56,3.17,5.16l15.34,28.25c1.67,3.1,2.83,4.99,3.47,5.68.64.69,1.52,1.03,2.65,1.03.98,0,1.86-.37,2.62-1.11.76-.74,1.66-2.11,2.69-4.13l10.4-20.28c1.28-2.6,2.11-4.3,2.51-5.09,2.41-4.92,4.79-8.19,7.15-9.81,3-2.11,8.46-3.17,16.37-3.17,13.91,0,20.87,3.17,20.87,9.51,0,1.43-.27,2.57-.81,3.43-.54.86-1.65,1.91-3.32,3.13-2.26,1.72-3.69,4.2-4.28,7.45-1.13,6.78-1.7,15.04-1.7,24.78,0,12.54.59,23.53,1.77,32.96.29,2.31.75,3.88,1.36,4.72.61.84,2.2,2.09,4.76,3.76,1.77,1.18,2.65,2.75,2.65,4.72,0,3.44-2.29,5.88-6.86,7.3-2.36.79-4.84,1.3-7.45,1.55-2.61.25-6.61.37-12.02.37-8.31,0-14.5-.59-18.58-1.77-4.52-1.33-6.78-3.59-6.78-6.78,0-1.18.29-2.15.89-2.91.59-.76,2.11-2.15,4.57-4.17,1.28-1.03,2.15-3.02,2.62-5.97.47-2.95.7-7.96.7-15.04,0-3.93-.18-6.51-.55-7.74-.37-1.23-1.14-1.84-2.32-1.84-1.38,0-2.7.95-3.98,2.84-1.28,1.89-3.2,5.67-5.75,11.32Z"/>
    <path class="cls-1" d="M477.4,172.08c9,0,16.89,2.34,23.67,7.01,4.87,3.34,8.78,7.7,11.73,13.05,3.05,5.6,4.57,11.46,4.57,17.55,0,10.67-4.89,19.74-14.67,27.21-9.34,7.13-20.04,10.69-32.08,10.69s-21.26-3.34-28.54-10.03c-7.08-6.49-10.62-14.95-10.62-25.37,0-11.6,4.33-21.09,12.98-28.47,9.05-7.77,20.03-11.65,32.96-11.65ZM471.5,189.12c-2.16,0-3.9.8-5.2,2.4s-1.95,3.72-1.95,6.38c0,2.95.55,6.97,1.66,12.06,1.11,5.09,2.42,9.6,3.95,13.53,1.52,4.03,4.01,6.05,7.45,6.05,4.38,0,6.56-2.78,6.56-8.33,0-4.13-.55-8.82-1.66-14.09-1.11-5.26-2.45-9.54-4.02-12.83-1.62-3.34-3.88-5.06-6.79-5.16Z"/>
    <path class="cls-1" d="M552.18,172.16c2.46,0,6.46.54,12.02,1.62,1.13.2,2.07.29,2.8.29.83,0,2.46-.44,4.87-1.33,1.13-.44,2.09-.66,2.88-.66,2.26,0,4.55,1.45,6.86,4.35,1.87,2.31,3.39,4.84,4.57,7.6,1.18,2.75,1.77,5.14,1.77,7.15s-.69,3.6-2.06,4.9c-1.38,1.3-3.1,1.95-5.16,1.95-1.72,0-3.26-.42-4.61-1.25-1.35-.83-3.53-2.68-6.53-5.53-3.15-3.05-5.75-4.57-7.82-4.57-1.38,0-2.57.5-3.58,1.51s-1.51,2.2-1.51,3.58c0,2.41,2.31,4.67,6.93,6.79,8.31,3.74,14.68,7.82,19.1,12.24,3.74,3.74,5.6,8.31,5.6,13.72,0,6.83-3,12.54-9,17.11-5.16,3.98-11.48,5.97-18.95,5.97-1.92,0-5.41-.32-10.47-.96-4.77-.54-7.45-.81-8.04-.81-.64,0-1.38.07-2.21.22-1.43.2-2.46.29-3.1.29-2.31,0-4.13-.59-5.46-1.77-2.02-1.82-3.88-4.68-5.6-8.59-1.72-3.91-2.58-7.26-2.58-10.07,0-4.52,1.77-6.78,5.31-6.78,1.38,0,2.64.46,3.8,1.36,1.15.91,3.58,3.33,7.26,7.26,2.01,2.16,3.69,3.65,5.01,4.46,1.33.81,2.75,1.22,4.28,1.22,1.62,0,2.92-.43,3.91-1.29.98-.86,1.47-2,1.47-3.43,0-2.21-1.89-4.23-5.68-6.05-7.92-3.88-13.63-7.89-17.15-12.02-3.52-4.13-5.27-8.9-5.27-14.31,0-5.85,1.79-10.89,5.38-15.12,5.11-6.05,12.09-9.07,20.94-9.07Z"/>
    <path class="cls-1" d="M635.66,148.56l-.96,30.9c-.1,3.69,1.03,5.53,3.39,5.53,1.18,0,2.33-.81,3.46-2.43,4.77-6.93,11.14-10.4,19.1-10.4s14.04,2.38,18.66,7.15c2.07,2.11,3.53,4.62,4.39,7.52.86,2.9,1.34,7.05,1.44,12.46l.66,26.62c.05,2.31.36,4.01.92,5.09.56,1.08,1.88,2.43,3.95,4.06,1.43,1.13,2.14,2.48,2.14,4.06,0,5.31-8.01,7.96-24.04,7.96-14.26,0-21.39-2.48-21.39-7.45,0-.83.12-1.47.37-1.92s1.11-1.62,2.58-3.54c2.07-2.7,3.1-9.46,3.1-20.28,0-6.54-.62-11.31-1.84-14.31-1.62-4.08-4.52-6.12-8.7-6.12-3,0-5.21,1.08-6.64,3.25-1.03,1.57-1.55,4.52-1.55,8.85v14.23c.34,6.29.64,9.86.88,10.69.24.84,1.38,2.39,3.39,4.65.93,1.03,1.4,2.24,1.4,3.61,0,5.56-7.23,8.33-21.68,8.33-16.91,0-25.37-2.88-25.37-8.63,0-1.33.27-2.35.81-3.06.54-.71,1.87-1.81,3.98-3.28,1.87-1.33,3.16-4.9,3.87-10.73s1.07-15.47,1.07-28.95c0-10.57-.29-17.9-.88-21.98-.2-1.52-.55-2.64-1.07-3.36-.52-.71-1.49-1.44-2.91-2.18-3.05-1.57-4.57-3.39-4.57-5.46,0-2.46,1.15-4.45,3.47-5.97,2.31-1.52,6.73-3.17,13.28-4.94,8.85-2.46,15.9-3.69,21.16-3.69,2.85,0,4.23,1.23,4.13,3.69Z"/>
    <path class="cls-1" d="M738.17,177.25v42.85c0,3.39.31,5.88.92,7.45.61,1.57,1.85,3.02,3.72,4.35,1.52,1.08,2.54,2,3.06,2.77.52.76.77,1.73.77,2.91,0,6.34-8.04,9.51-24.12,9.51-8.65,0-15.51-.69-20.58-2.06-1.72-.49-3.11-1.35-4.17-2.58-1.06-1.23-1.59-2.63-1.59-4.2,0-1.33.27-2.36.81-3.1.54-.74,1.92-1.92,4.13-3.54,1.52-1.13,2.61-2.97,3.25-5.53.64-2.56.96-6.37.96-11.43,0-1.62-.11-4.66-.33-9.11-.22-4.45-.38-7.04-.48-7.78-.29-2.02-1.67-3.56-4.13-4.65-3.05-1.33-4.57-3.29-4.57-5.9,0-3.1,1.99-5.41,5.97-6.93,5.51-2.11,11.41-3.91,17.7-5.38,6.29-1.47,11.16-2.21,14.6-2.21,2.7,0,4.06,1.52,4.06,4.57ZM723.56,144.95c4.28,0,7.67.8,10.18,2.4,2.51,1.6,3.76,3.75,3.76,6.45,0,3.79-1.89,6.79-5.68,9-6,3.49-13.25,5.24-21.75,5.24-3.59,0-6.44-.69-8.55-2.07-2.85-1.77-4.28-4.23-4.28-7.37,0-4.23,3.02-7.55,9.07-9.96,6.14-2.46,11.9-3.69,17.26-3.69Z"/>
    <path class="cls-1" d="M793.7,148.56l-.66,23.08c-.05,2.31-.07,5.7-.07,10.18,0,4.97.07,7.89.22,8.78.34,2.02,1.38,3.02,3.1,3.02,1.47,0,3.74-.95,6.78-2.84,3.05-1.89,4.57-3.31,4.57-4.24,0-.54-.54-1.52-1.62-2.95-.79-1.03-1.18-2.02-1.18-2.95,0-5.31,6.54-7.96,19.62-7.96,6.78,0,12.14.69,16.08,2.07,1.57.54,2.88,1.47,3.91,2.8,1.03,1.33,1.55,2.75,1.55,4.28,0,2.21-1.06,3.76-3.17,4.65-.44.2-1.87.52-4.28.96-2.16.39-4.97,1.73-8.41,4.02-3.44,2.29-5.16,3.95-5.16,4.98,0,.69,2.08,3.92,6.23,9.7,4.15,5.78,8.03,10.8,11.61,15.08,2.31,2.8,4.12,4.77,5.42,5.9,1.3,1.13,3.11,2.34,5.42,3.61,3.54,1.92,5.31,4.11,5.31,6.56,0,2.61-1.12,4.65-3.36,6.12-2.24,1.47-5.3,2.21-9.18,2.21h-23.89c-3-.05-5.33-1.15-7.01-3.32l-12.24-15.71c-3.25-4.13-5.22-6.59-5.94-7.38-.71-.79-1.32-1.18-1.81-1.18-.59,0-.98.44-1.18,1.33-.2.88-.29,2.56-.29,5.01,0,2.21.25,3.82.74,4.83.49,1.01,1.62,2.22,3.39,3.65,1.28,1.03,1.92,2.56,1.92,4.57,0,3.44-1.82,5.92-5.46,7.45-3.64,1.52-9.64,2.29-17.99,2.29-9.83,0-16.22-.42-19.17-1.25-1.67-.49-3.1-1.49-4.28-2.99-1.18-1.5-1.77-3.08-1.77-4.76,0-1.87,1.03-3.49,3.1-4.87,1.77-1.13,2.9-1.99,3.39-2.58.49-.59.88-1.52,1.18-2.8,1.13-6.88,1.67-17.5,1.62-31.86v-16.15c0-5.51-.28-9.02-.85-10.55-.57-1.52-1.95-2.43-4.17-2.73-4.03-.54-6.05-2.21-6.05-5.01,0-1.87.89-3.55,2.66-5.05,1.77-1.5,4.67-2.99,8.7-4.46,12.88-4.77,22.42-7.15,28.61-7.15,2.8,0,4.15,1.21,4.06,3.61Z"/>
    <path class="cls-1" d="M905.42,172.08c9,0,16.89,2.34,23.67,7.01,4.87,3.34,8.78,7.7,11.73,13.05,3.05,5.6,4.57,11.46,4.57,17.55,0,10.67-4.89,19.74-14.68,27.21-9.34,7.13-20.03,10.69-32.08,10.69s-21.26-3.34-28.54-10.03c-7.08-6.49-10.62-14.95-10.62-25.37,0-11.6,4.33-21.09,12.98-28.47,9.05-7.77,20.03-11.65,32.96-11.65ZM899.52,189.12c-2.16,0-3.9.8-5.2,2.4-1.3,1.6-1.95,3.72-1.95,6.38,0,2.95.55,6.97,1.66,12.06,1.11,5.09,2.42,9.6,3.95,13.53,1.52,4.03,4.01,6.05,7.45,6.05,4.38,0,6.56-2.78,6.56-8.33,0-4.13-.55-8.82-1.66-14.09-1.11-5.26-2.45-9.54-4.02-12.83-1.62-3.34-3.88-5.06-6.78-5.16Z"/>
  </g>
  <path class="cls-3" d="M14.75,98.82S1.87,106.69.39,114.53c-1.48,7.86,1.48,17.14,5.52,23.21,4.04,6.06,8.84,11.08,14.74,13.22s11.05,1.78,11.05,1.78c0,0,13.63,15,37.92,35.36,24.28,20.36,55.24,44.63,90.22,63.56,34.98,18.92,47.51,23.57,57.07,23.57s9.21-13.93,8.11-18.21-62.6-70.69-62.6-70.69L14.75,98.82Z"/>
  <path class="cls-7" d="M40.54,133.47l-9.21-9.64s-9.57-17.51-18.41-17.51S.39,114.53.39,114.53c0,0-1.1-8.94,9.94-26.06,11.05-17.12,25.03-30.71,37.56-39.28s27.97-18.58,38.29-24.28c10.32-5.7,32.77-12.86,45.67-17.14,12.88-4.29,40.88-9.64,53.76-7.14,12.88,2.51,18.41,11.08,18.41,19.99s-2.21,15-4.04,16.78-13.99,11.79-13.99,11.79L40.54,133.47Z"/>
  <path class="cls-4" d="M66.37,95.84l-22.82,14.29-9.57,18.21s1.83,6.06,4.8,9.28c2.94,3.21,27.6,26.12,45.25,40.76,13.77,11.42,43.13,35.65,43.13,35.65,0,0,1.2,12.17,2.59,20.72,1.1,6.79,1.18,18.12,8.56,17.8,9.31-.41,3.95-18.69,11.33-18.51,14.74.36.12,39.03,15.96,38.82,12.62-.16,4.61-21.29,10.93-24.89,3.43-1.96,10.25,6.36,21.37,11.08,13.73,5.81,22.1,10.21,26.51,8.21,9.33-4.24-10.34-103.11-12.55-119.88-2.21-16.78-13.21-102.95-13.96-105.8s-15.84-3.21-15.84-3.21l-23.2,7.86-33.14,4.29-39.02,22.5-20.31,22.82h0Z"/>
  <path class="cls-8" d="M60.61,92.26c-7.24,3.97-16.57,6.18-24.45,18.76-6.56,10.49-8.3,21.22-3.62,22.04,4.68.82,8.23-15,14.46-21.02,9.99-9.69,18.08-10.71,23.81-15.87,5.74-5.15,12.01-19.15,35.92-31.53,27.85-14.43,44.5-10.62,51.01-12.99,8.51-3.1,10.81-8.16,21.46-10.3,11.26-2.26,19.09,2.1,19.09,2.1,0,0,2.56-5.77-.85-8.46s-9.68-4.79-20.17-2.71c-11.47,2.26-19.98,9.69-22.31,9.89s-26.14-1.03-54.42,14.64c-28.28,15.66-33.57,31.94-39.94,35.45h0Z"/>
  <path class="cls-5" d="M93.12,117.2l-38.03,8.05s-.59,7-.21,9.07c1.27,7,10.84,18.15,16.57,19.99,5.74,1.85,17.42,2.05,21.25.41s15.3-9.69,16.78-14.02c1.48-4.33,1.08-22.45-1.88-25.35-2.96-2.87-14.48,1.85-14.48,1.85Z"/>
  <path class="cls-2" d="M66.35,105.66c-4.07,3.05-11.89,13.4-11.26,20.81.63,7.43,13.82,20.4,17.42,21.63s15.3,1.44,18.29.62c2.99-.82,14.46-9.07,16.15-11.95,1.69-2.9,3.2-18.97.42-21.84s-11.05-11.33-17.63-13.2c-6.61-1.85-19.56,1.03-23.39,3.92h0Z"/>
  <path class="cls-5" d="M163.68,140.29s-33.66-2.35-34.08-.3-1.2,9.98.94,16.37c1.5,4.54,5.1,12.38,16.15,16.89,11.05,4.51,21.67-.41,24.45-2.48,5.19-3.88,8.51-8.66,9.36-11.53.85-2.87-16.81-18.94-16.81-18.94h0Z"/>
  <path class="cls-2" d="M147.32,123.17c-5.19,1.82-17.63,9.28-17.86,17.53-.21,8.25,5.95,18.35,9.14,20.61s13.82,8.25,21.67,7.84c7.87-.41,18.71-6.59,20.19-9.89,1.48-3.31,2.12-12.99,1.48-17.94s-11.68-16.07-17.21-17.74c-5.52-1.64-12.74-2.05-17.42-.41h0Z"/>
  <path class="cls-5" d="M146.05,200.27s-30.82-8.25-31.24-7.64c-.42.62-4.68,5.77-3.62,8.25,1.06,2.48,11.89,10.92,16.36,14.64s17.96,11.4,19.56,11.12c3.83-.62,6.79-6.59,6.79-6.59l-7.85-19.79Z"/>
  <path class="cls-2" d="M148.8,187.68c-7.52-5.36-18.5-4.95-24.45-2.26-5.95,2.69-9.57,6.18-10.2,8.87s4.28,7.86,6.21,9.3c1.9,1.44,7.69,5.68,7.69,5.68,0,0,8.58,6.52,11.75,8.89,4.42,3.31,9.97,5.17,11.45,5.38,1.48.21,8.39-8.46,7.12-20.01-.66-5.9-3.24-11.33-9.57-15.84h0Z"/>
  <path class="cls-5" d="M202.37,171.2l-11.47-.41s-4.68,8.46-1.48,17.94c2.61,7.75,8.09,12.38,17.21,14.84,9.14,2.48,14.24,1.6,14.24,1.6l.14-6.22-18.64-27.74Z"/>
  <path class="cls-2" d="M213.42,156.98s-14.15-1.62-21.46,11.12c-5.59,9.78-1.69,17.94,2.77,22.68,4.47,4.74,11.26,7.84,16.36,8.25s10.04.02,10.04.02c0,0-1.97-12.65-3.9-23.23-1.18-6.34-3.81-18.85-3.81-18.85h0Z"/>
  <path class="cls-5" d="M172.19,67.73s-27.41.82-29.12,3.51-1.69,14.64-.85,19.38,8.3,16.28,23.18,16.48c14.88.21,20.12-3.4,25.9-14.29,5.78-10.9-.24-23.09-.24-23.09l-18.88-1.98h0Z"/>
  <path class="cls-2" d="M172.4,55.56c-5.95-1.12-14.24,1.23-18.29,3.92-4.04,2.69-10.62,8.25-11.05,12.38s3.41,16.07,4.89,18.35c1.48,2.26,7.64,8.39,9.57,9.28,4.47,2.05,16.78,1.03,20.4-.21s13.61-9.07,14.67-13.2,2.33-11.12-2.56-19.58c-4.89-8.46-12.11-9.89-17.63-10.94h0Z"/>
  <path class="cls-5" d="M211.12,228.56l-24.47-1.03s-3.29,6.41-2.3,12.01c.8,4.65,4.77,10.99,11.89,13.65,4.04,1.5,14.62.52,17.21-1.19,5.22-3.46,6.89-9.76,6.72-12.99-.07-1.69-9.05-10.46-9.05-10.46h0Z"/>
  <path class="cls-2" d="M205.78,218.48c-6.35-.93-13.66,2.39-16.81,5.56-3.15,3.17-3.78,7.14-2.59,11.92,2.19,8.75,7.97,11.24,10.65,12.58,3.97,1.98,14.88,1.6,18.31-.93,3.41-2.51,5.99-6.79,5.19-13.38-.82-6.61-3.83-14.16-14.76-15.75Z"/>
  <path class="cls-6" d="M51.8,61.83c.21,4.92,9.1,4.08,12.6,3.74,2.8-.27,9.8-.84,9.8-5.27s-6.11-4.4-10.67-4.24c-4.4.16-11.92,1.87-11.73,5.77h0Z"/>
  <path class="cls-6" d="M99.54,32.83c0,3.24,3.67,3.56,5.95,3.74,2.28.16,5.24-.68,5.43-3.21.16-2.55-2.09-4.08-5.43-4.24-3.5-.21-5.95.98-5.95,3.72h0Z"/>
  <path class="cls-6" d="M121.4,40.63c3.36,3.53,8.39-1.19,10.15-3.4,1.74-2.21,2.09-5.61.16-7.29s-5.59.16-8.04,2.37-4.37,6.11-2.28,8.32h0Z"/>
  <path class="cls-6" d="M159.36,22.64c4.09,4.49,10.84-3.05,13.63-5.61s5.08-6.11,2.44-8.98-8.58,1.19-10.84,3.74c-2.28,2.53-7.87,7.98-5.24,10.85Z"/>
  <path class="cls-6" d="M30.45,98.8c3.97.91,5.27-3.65,5.95-7.14.71-3.56.71-6.95-2.28-7.45-3.38-.57-5.24,2.71-5.78,5.93-.45,2.9-1.55,7.82,2.12,8.66h0Z"/>
</svg>