<?xml version="1.0" encoding="UTF-8"?>
<svg id="Layer_1" data-name="Layer 1" xmlns="http://www.w3.org/2000/svg" viewBox="0 0 947.9 283.52">
  <defs>
    <style>
      .cls-1 {
        letter-spacing: -.01em;
      }

      .cls-2 {
        fill: #ed6e32;
      }

      .cls-3 {
        fill: #f78e1e;
      }

      .cls-4 {
        fill: #fecc8b;
      }

      .cls-5 {
        fill: #db1f2a;
      }

      .cls-6 {
        fill: #fac02c;
      }

      .cls-7 {
        letter-spacing: 0em;
      }

      .cls-8 {
        fill: #f5b03f;
      }

      .cls-9 {
        fill: #cb6e28;
      }

      .cls-10 {
        fill: #f1f2f2;
        font-family: CooperBlack, 'Cooper Black';
        font-size: 151.03px;
      }
    </style>
  </defs>
  <text class="cls-10" transform="translate(295.47 137.61)"><tspan x="0" y="0">Pizza</tspan><tspan x="0" y="108">Moshi</tspan><tspan class="cls-1" x="452.73" y="108">k</tspan><tspan class="cls-7" x="561.51" y="108">o</tspan></text>
  <path class="cls-3" d="M14.75,98.82S1.87,106.69.39,114.53c-1.48,7.86,1.48,17.14,5.52,23.21,4.04,6.06,8.84,11.08,14.74,13.22s11.05,1.78,11.05,1.78c0,0,13.63,15,37.92,35.36,24.28,20.36,55.24,44.63,90.22,63.56,34.98,18.92,47.51,23.57,57.07,23.57s9.21-13.93,8.11-18.21-62.6-70.69-62.6-70.69L14.75,98.82Z"/>
  <path class="cls-8" d="M40.54,133.47l-9.21-9.64s-9.57-17.51-18.41-17.51S.39,114.53.39,114.53c0,0-1.1-8.94,9.94-26.06,11.05-17.12,25.03-30.71,37.56-39.28s27.97-18.58,38.29-24.28c10.32-5.7,32.77-12.86,45.67-17.14,12.88-4.29,40.88-9.64,53.76-7.14,12.88,2.51,18.41,11.08,18.41,19.99s-2.21,15-4.04,16.78-13.99,11.79-13.99,11.79L40.54,133.47Z"/>
  <path class="cls-4" d="M66.37,95.84l-22.82,14.29-9.57,18.21s1.83,6.06,4.8,9.28c2.94,3.21,27.6,26.12,45.25,40.76,13.77,11.42,43.13,35.65,43.13,35.65,0,0,1.2,12.17,2.59,20.72,1.1,6.79,1.18,18.12,8.56,17.8,9.31-.41,3.95-18.69,11.33-18.51,14.74.36.12,39.03,15.96,38.82,12.62-.16,4.61-21.29,10.93-24.89,3.43-1.96,10.25,6.36,21.37,11.08,13.73,5.81,22.1,10.21,26.51,8.21,9.33-4.24-10.34-103.11-12.55-119.88-2.21-16.78-13.21-102.95-13.96-105.8s-15.84-3.21-15.84-3.21l-23.2,7.86-33.14,4.29-39.02,22.5-20.31,22.82h0Z"/>
  <path class="cls-9" d="M60.61,92.26c-7.24,3.97-16.57,6.18-24.45,18.76-6.56,10.49-8.3,21.22-3.62,22.04,4.68.82,8.23-15,14.46-21.02,9.99-9.69,18.08-10.71,23.81-15.87s12.01-19.15,35.92-31.53c27.85-14.43,44.5-10.62,51.01-12.99,8.51-3.1,10.81-8.16,21.46-10.3,11.26-2.26,19.09,2.1,19.09,2.1,0,0,2.56-5.77-.85-8.46s-9.68-4.79-20.17-2.71c-11.47,2.26-19.98,9.69-22.31,9.89s-26.14-1.03-54.42,14.64c-28.28,15.66-33.57,31.94-39.94,35.45h0Z"/>
  <path class="cls-5" d="M93.12,117.2l-38.03,8.05s-.59,7-.21,9.07c1.27,7,10.84,18.15,16.57,19.99,5.74,1.85,17.42,2.05,21.25.41s15.3-9.69,16.78-14.02c1.48-4.33,1.08-22.45-1.88-25.35-2.96-2.87-14.48,1.85-14.48,1.85Z"/>
  <path class="cls-2" d="M66.35,105.66c-4.07,3.05-11.89,13.4-11.26,20.81.63,7.43,13.82,20.4,17.42,21.63s15.3,1.44,18.29.62c2.99-.82,14.46-9.07,16.15-11.95,1.69-2.9,3.2-18.97.42-21.84s-11.05-11.33-17.63-13.2c-6.61-1.85-19.56,1.03-23.39,3.92h0Z"/>
  <path class="cls-5" d="M163.68,140.29s-33.66-2.35-34.08-.3-1.2,9.98.94,16.37c1.5,4.54,5.1,12.38,16.15,16.89,11.05,4.51,21.67-.41,24.45-2.48,5.19-3.88,8.51-8.66,9.36-11.53.85-2.87-16.81-18.94-16.81-18.94h0Z"/>
  <path class="cls-2" d="M147.32,123.17c-5.19,1.82-17.63,9.28-17.86,17.53-.21,8.25,5.95,18.35,9.14,20.61s13.82,8.25,21.67,7.84c7.87-.41,18.71-6.59,20.19-9.89,1.48-3.31,2.12-12.99,1.48-17.94s-11.68-16.07-17.21-17.74c-5.52-1.64-12.74-2.05-17.42-.41h0Z"/>
  <path class="cls-5" d="M146.05,200.27s-30.82-8.25-31.24-7.64c-.42.62-4.68,5.77-3.62,8.25,1.06,2.48,11.89,10.92,16.36,14.64s17.96,11.4,19.56,11.12c3.83-.62,6.79-6.59,6.79-6.59l-7.85-19.79Z"/>
  <path class="cls-2" d="M148.8,187.68c-7.52-5.36-18.5-4.95-24.45-2.26-5.95,2.69-9.57,6.18-10.2,8.87s4.28,7.86,6.21,9.3c1.9,1.44,7.69,5.68,7.69,5.68,0,0,8.58,6.52,11.75,8.89,4.42,3.31,9.97,5.17,11.45,5.38,1.48.21,8.39-8.46,7.12-20.01-.66-5.9-3.24-11.33-9.57-15.84h0Z"/>
  <path class="cls-5" d="M202.37,171.2l-11.47-.41s-4.68,8.46-1.48,17.94c2.61,7.75,8.09,12.38,17.21,14.84,9.14,2.48,14.24,1.6,14.24,1.6l.14-6.22-18.64-27.74Z"/>
  <path class="cls-2" d="M213.42,156.98s-14.15-1.62-21.46,11.12c-5.59,9.78-1.69,17.94,2.77,22.68,4.47,4.74,11.26,7.84,16.36,8.25s10.04.02,10.04.02c0,0-1.97-12.65-3.9-23.23-1.18-6.34-3.81-18.85-3.81-18.85h0Z"/>
  <path class="cls-5" d="M172.19,67.73s-27.41.82-29.12,3.51-1.69,14.64-.85,19.38,8.3,16.28,23.18,16.48c14.88.21,20.12-3.4,25.9-14.29,5.78-10.9-.24-23.09-.24-23.09l-18.88-1.98h0Z"/>
  <path class="cls-2" d="M172.4,55.56c-5.95-1.12-14.24,1.23-18.29,3.92-4.04,2.69-10.62,8.25-11.05,12.38s3.41,16.07,4.89,18.35c1.48,2.26,7.64,8.39,9.57,9.28,4.47,2.05,16.78,1.03,20.4-.21s13.61-9.07,14.67-13.2,2.33-11.12-2.56-19.58c-4.89-8.46-12.11-9.89-17.63-10.94h0Z"/>
  <path class="cls-5" d="M211.12,228.56l-24.47-1.03s-3.29,6.41-2.3,12.01c.8,4.65,4.77,10.99,11.89,13.65,4.04,1.5,14.62.52,17.21-1.19,5.22-3.46,6.89-9.76,6.72-12.99-.07-1.69-9.05-10.46-9.05-10.46h0Z"/>
  <path class="cls-2" d="M205.78,218.48c-6.35-.93-13.66,2.39-16.81,5.56-3.15,3.17-3.78,7.14-2.59,11.92,2.19,8.75,7.97,11.24,10.65,12.58,3.97,1.98,14.88,1.6,18.31-.93,3.41-2.51,5.99-6.79,5.19-13.38-.82-6.61-3.83-14.16-14.76-15.75Z"/>
  <path class="cls-6" d="M51.8,61.83c.21,4.92,9.1,4.08,12.6,3.74,2.8-.27,9.8-.84,9.8-5.27s-6.11-4.4-10.67-4.24c-4.4.16-11.92,1.87-11.73,5.77h0Z"/>
  <path class="cls-6" d="M99.54,32.83c0,3.24,3.67,3.56,5.95,3.74,2.28.16,5.24-.68,5.43-3.21.16-2.55-2.09-4.08-5.43-4.24-3.5-.21-5.95.98-5.95,3.72h0Z"/>
  <path class="cls-6" d="M121.4,40.63c3.36,3.53,8.39-1.19,10.15-3.4,1.74-2.21,2.09-5.61.16-7.29s-5.59.16-8.04,2.37-4.37,6.11-2.28,8.32h0Z"/>
  <path class="cls-6" d="M159.36,22.64c4.09,4.49,10.84-3.05,13.63-5.61s5.08-6.11,2.44-8.98-8.58,1.19-10.84,3.74c-2.28,2.53-7.87,7.98-5.24,10.85Z"/>
  <path class="cls-6" d="M30.45,98.8c3.97.91,5.27-3.65,5.95-7.14.71-3.56.71-6.95-2.28-7.45-3.38-.57-5.24,2.71-5.78,5.93-.45,2.9-1.55,7.82,2.12,8.66h0Z"/>
</svg>